<?xml version="1.0" standalone="no"?>
<!DOCTYPE svg PUBLIC "-//W3C//DTD SVG 20010904//EN"
 "http://www.w3.org/TR/2001/REC-SVG-20010904/DTD/svg10.dtd">
<svg version="1.0" xmlns="http://www.w3.org/2000/svg"
 width="412.000000pt" height="412.000000pt" viewBox="0 0 412.000000 412.000000"
 preserveAspectRatio="xMidYMid meet">
<metadata>
Created by potrace 1.11, written by Peter Selinger 2001-2013
</metadata>
<g transform="translate(0.000000,412.000000) scale(0.100000,-0.100000)"
fill="#000000" stroke="none">
<path d="M1835 4111 c-3 -2 -5 -139 -5 -303 0 -231 3 -298 13 -299 6 -1 367
-2 802 -3 l790 -1 0 -800 0 -800 303 -3 c166 -1 303 1 303 5 4 20 6 2180 3
2194 -4 13 -118 15 -1104 15 -606 0 -1103 -2 -1105 -5z"/>
<path d="M79 2216 c-1 0 -2 -497 -3 -1103 -1 -740 2 -1104 9 -1106 5 -2 503
-3 1105 -3 l1095 1 3 303 c1 166 -1 303 -5 303 -5 1 -363 3 -798 4 -434 1
-792 3 -795 4 -3 0 -5 361 -5 800 l1 800 -303 -1 c-167 0 -304 -1 -304 -2z"/>
</g>
</svg>
